<svg xmlns="http://www.w3.org/2000/svg" width="250" height="100" viewBox="0,0,250,100"><rect width="100%" height="100%" fill="#fff"/><path d="M14 93 C132 75,121 38,233 13" stroke="#3add3a" fill="none"/><path fill="#bc90e9" d="M135.50 52.30L135.53 52.33L135.48 52.29Q137.73 52.49 140.02 52.49L140.04 52.51L140.07 52.55Q142.17 52.41 144.46 52.22L144.60 52.36L144.56 52.32Q144.30 53.02 144.30 53.92L144.35 53.97L144.36 55.65L144.41 55.69Q141.45 55.68 135.50 55.82L135.53 55.85L135.56 55.88Q135.40 63.15 133.97 69.38L134.09 69.50L134.02 69.43Q131.27 70.30 129.42 71.30L129.40 71.28L129.37 71.25Q132.29 62.75 131.95 53.85L131.93 53.83L131.93 53.83Q131.61 44.89 128.28 36.56L128.39 36.67L128.27 36.56Q133.00 39.86 138.95 40.15L138.83 40.03L138.84 40.04Q144.71 40.29 149.89 38.10L149.93 38.13L149.87 38.08Q149.54 39.13 149.26 40.12L149.34 40.21L148.62 42.11L148.71 42.20Q145.22 43.46 141.51 43.65L141.62 43.77L141.61 43.75Q137.97 43.97 134.40 43.06L134.43 43.10L134.40 43.07Q135.15 47.19 135.39 52.19ZM150.79 37.33L150.69 37.23L150.74 37.28Q144.99 39.95 138.90 39.57L138.83 39.51L138.79 39.47Q132.11 39.06 127.44 35.49L127.48 35.53L127.58 35.62Q131.08 44.22 131.46 53.74L131.45 53.73L131.54 53.82Q131.98 63.77 128.84 72.24L128.83 72.24L128.86 72.26Q129.55 71.62 131.26 70.81L131.33 70.88L131.41 70.96Q131.08 71.82 130.37 73.72L130.37 73.73L130.48 73.83Q133.19 72.32 136.81 71.70L136.99 71.87L137.01 71.89Q137.61 65.64 137.84 58.50L137.99 58.65L137.96 58.62Q140.07 58.45 142.36 58.45L142.45 58.54L142.37 58.46Q144.57 58.42 146.85 58.66L146.97 58.78L146.85 58.66Q146.77 57.53 146.77 56.39L146.77 56.39L146.83 54.07L146.85 54.09Q145.81 54.15 144.77 54.15L144.83 54.21L144.89 54.27Q144.74 53.02 144.83 51.74L144.96 51.86L144.88 51.78Q143.12 51.98 141.36 51.98L141.49 52.11L141.43 52.04Q139.74 52.12 138.03 52.07L137.99 52.03L137.91 49.29L137.92 49.29Q137.78 47.82 137.64 46.49L137.76 46.62L137.77 46.63Q138.81 46.52 140.05 46.52L140.20 46.68L140.06 46.53Q146.05 46.58 150.57 44.20L150.62 44.25L150.52 44.15Q151.28 42.01 152.42 38.73L152.36 38.66L152.28 38.58Q150.66 39.63 149.66 40.06L149.68 40.07L149.69 40.09Q150.17 39.28 150.79 37.33Z"/><path fill="#e782ce" d="M63.82 42.98L63.86 43.03L63.78 42.95Q64.84 48.25 65.03 52.72L65.02 52.71L64.94 52.62Q66.50 52.90 67.83 52.90L67.77 52.83L70.59 52.90L70.41 52.72Q71.77 52.74 72.86 50.98L72.96 51.08L72.96 51.08Q73.88 49.62 74.02 48.15L74.01 48.13L73.92 48.04Q74.34 44.23 69.06 43.61L69.19 43.74L69.04 43.59Q67.12 43.72 63.84 43.00ZM65.03 56.14L65.07 56.18L65.00 56.11Q64.97 63.93 63.54 69.45L63.52 69.43L63.45 69.36Q61.83 70.08 58.93 71.41L58.87 71.35L58.82 71.30Q61.80 63.00 61.47 53.91L61.38 53.83L61.46 53.90Q61.09 44.68 57.62 36.64L57.56 36.58L57.70 36.72Q62.87 40.18 70.67 40.18L70.54 40.05L70.61 40.11Q78.14 40.08 78.33 44.41L78.37 44.45L78.34 44.42Q78.36 47.39 77.12 50.72L77.18 50.78L77.12 50.72Q76.69 52.19 75.50 53.71L75.43 53.64L75.54 53.75Q73.85 55.73 70.66 56.06L70.72 56.12L70.70 56.10Q67.84 56.10 65.04 56.15ZM72.78 59.04L72.73 58.98L72.70 58.96Q77.84 59.20 79.41 53.20L79.44 53.23L79.50 53.29Q80.61 48.64 80.42 46.12L80.51 46.21L80.43 46.13Q80.28 44.22 79.33 42.98L79.41 43.06L79.48 43.13Q78.96 42.62 78.35 42.33L78.36 42.35L78.28 42.27Q78.32 42.12 77.56 41.16L77.64 41.25L77.52 41.12Q75.66 39.55 70.71 39.55L70.78 39.62L70.75 39.59Q62.16 39.62 56.88 35.67L56.73 35.52L56.77 35.56Q60.83 44.52 61.17 53.85L61.03 53.71L61.15 53.83Q61.42 63.33 58.08 72.18L58.13 72.22L58.08 72.17Q59.36 71.32 60.60 70.84L60.69 70.93L60.23 72.37L60.25 72.39Q60.03 73.13 59.70 73.84L59.72 73.86L59.67 73.81Q62.78 72.59 66.40 71.93L66.25 71.78L66.28 71.81Q67.42 65.01 67.52 59.11L67.53 59.12L67.49 59.07Q68.85 58.97 70.09 58.97L70.08 58.95L70.05 58.92Q71.76 58.96 72.75 59.01ZM71.54 46.57L71.49 46.52L71.59 46.62Q72.26 46.67 73.50 46.96L73.35 46.81L73.38 46.84Q73.50 47.10 73.55 47.48L73.61 47.55L73.56 47.49Q73.70 47.91 73.60 48.25L73.46 48.10L73.59 48.23Q73.31 49.62 72.40 50.71L72.57 50.88L72.50 50.81Q71.81 52.16 70.52 52.40L70.54 52.42L70.41 52.29Q69.56 52.35 67.52 52.35L67.41 52.24L67.55 52.38Q67.50 49.52 67.21 46.57L67.16 46.51L69.37 46.63L69.34 46.61Q70.36 46.57 71.45 46.48Z"/><path d="M2 75 C118 88,122 56,246 45" stroke="#ea7a7a" fill="none"/><path fill="#d1e692" d="M99.35 55.73L99.50 55.87L99.38 55.75Q99.47 61.17 98.56 66.35L98.60 66.40L98.58 66.37Q101.31 65.58 105.17 65.44L105.21 65.49L105.18 65.45Q106.85 65.70 108.19 64.44L108.18 64.44L108.22 64.47Q109.51 63.17 109.51 61.50L109.44 61.44L109.43 61.42Q109.53 61.14 109.48 60.81L109.43 60.76L109.43 60.76Q109.37 57.22 106.56 56.17L106.48 56.09L106.52 56.14Q105.58 55.77 104.73 55.87L104.68 55.81L104.62 55.75Q103.32 55.70 102.04 55.75L102.11 55.82L101.98 55.69Q100.72 55.81 99.44 55.81ZM97.90 42.75L97.84 42.69L97.83 42.69Q99.04 46.95 99.38 52.42L99.31 52.35L99.30 52.34Q101.19 52.56 104.52 52.61L104.45 52.54L104.44 52.53Q108.13 52.60 108.55 48.18L108.60 48.22L108.60 48.23Q108.81 45.77 107.05 44.72L107.12 44.79L106.97 44.64Q105.98 44.12 100.46 43.32L100.37 43.23L100.29 43.15Q99.03 43.03 97.89 42.74ZM93.38 71.41L93.28 71.30L93.25 71.27Q96.50 63.10 96.17 53.87L96.06 53.76L96.13 53.84Q95.75 44.70 92.09 36.61L92.12 36.64L91.96 36.48Q96.77 39.72 104.55 40.03L104.50 39.98L104.63 40.12Q112.34 40.35 112.77 43.97L112.83 44.03L112.80 44.00Q113.28 47.53 111.52 50.86L111.55 50.89L111.48 50.82Q110.48 52.63 108.48 53.48L108.57 53.57L108.43 53.43Q113.18 54.47 113.46 61.18L113.35 61.06L113.44 61.16Q113.37 62.37 113.28 64.13L113.29 64.14L113.43 64.28Q113.42 65.99 112.26 67.15L112.22 67.12L112.08 66.97Q110.91 68.14 109.24 68.33L109.26 68.35L109.26 68.35Q107.61 68.64 106.28 68.64L106.27 68.63L106.29 68.65Q99.05 68.55 93.39 71.41ZM109.33 71.74L109.26 71.67L109.26 71.68Q110.48 71.80 112.81 71.94L112.89 72.02L112.84 71.97Q114.57 71.99 115.95 70.89L115.99 70.93L115.97 70.91Q117.08 69.89 116.94 67.94L116.78 67.77L116.94 67.93Q116.81 66.71 115.90 62.38L115.82 62.30L115.88 62.36Q114.92 58.21 112.59 56.35L112.74 56.50L112.14 55.38L112.17 55.41Q114.19 53.57 114.90 48.86L115.00 48.96L114.90 48.86Q115.18 47.52 115.08 45.76L114.97 45.65L115.03 45.70Q115.07 44.17 113.69 43.13L113.61 43.05L113.66 43.10Q113.17 42.75 113.03 42.70L113.03 42.71L113.13 42.81Q112.80 42.14 111.75 41.14L111.70 41.09L111.65 41.04Q109.73 39.69 104.45 39.46L104.53 39.54L104.62 39.62Q96.22 39.18 91.23 35.56L91.26 35.60L91.23 35.57Q95.36 44.36 95.74 53.78L95.70 53.73L95.74 53.78Q96.23 63.65 92.71 72.31L92.56 72.16L95.20 71.03L95.20 71.04Q94.73 72.47 94.11 73.90L94.05 73.84L94.13 73.92Q99.42 71.50 105.70 71.50L105.70 71.49L105.67 71.47Q107.61 71.64 109.42 71.83ZM106.64 58.53L106.60 58.49L106.63 58.53Q107.57 58.47 108.71 59.04L108.63 58.95L108.65 58.97Q108.91 59.52 109.10 60.85L109.09 60.85L109.12 60.87Q109.34 62.57 108.17 63.88L108.17 63.88L108.13 63.84Q107.04 65.23 105.28 65.08L105.19 64.99L103.28 65.07L103.43 65.23Q102.47 65.26 101.56 65.41L101.50 65.34L101.54 65.38Q101.84 63.02 101.93 58.69L101.91 58.67L102.02 58.77Q102.80 58.65 104.37 58.60L104.39 58.62L104.25 58.48Q105.99 58.61 106.76 58.65ZM105.40 46.59L105.29 46.48L105.86 46.58L105.86 46.58Q106.14 46.58 106.38 46.62L106.39 46.63L106.86 46.63L107.25 46.78L108.05 46.91L108.05 46.91Q108.10 47.16 108.10 47.54L108.10 47.53L108.12 48.21L108.10 48.20Q108.19 49.86 107.10 51.03L107.07 51.00L107.00 50.93Q105.94 52.13 104.42 52.13L104.34 52.05L104.46 52.17Q103.10 52.09 103.10 52.09L103.19 52.19L103.21 52.21Q101.53 52.15 101.96 52.15L101.94 52.13L101.88 52.06Q101.84 50.17 101.46 46.36L101.56 46.46L101.57 46.47Q103.43 46.53 105.33 46.53Z"/><path fill="#e65ae6" d="M28.96 37.25L29.03 37.32L29.09 37.38Q30.42 40.14 32.84 40.14L32.80 40.09L32.79 40.08Q33.53 40.20 34.05 40.01L33.87 39.83L33.90 39.86Q33.59 46.21 33.54 54.21L33.54 54.20L33.60 54.27Q33.67 62.19 33.91 68.75L33.90 68.74L33.83 68.67Q33.31 68.44 32.84 68.44L32.86 68.46L32.97 68.57Q31.27 68.59 29.51 70.92L29.43 70.84L29.34 70.75Q30.16 62.34 30.12 53.97L30.19 54.04L30.27 54.12Q30.14 45.67 29.00 37.29ZM28.89 72.30L28.88 72.29L28.74 72.14Q30.05 70.41 31.52 69.51L31.36 69.35L31.40 69.38Q31.46 70.68 31.36 72.01L31.31 71.96L31.43 72.08Q32.37 71.45 33.32 71.59L33.28 71.55L33.32 71.59Q35.94 71.92 37.65 75.40L37.65 75.40L37.50 75.25Q36.15 66.19 36.15 57.10L36.18 57.12L36.03 56.98Q36.10 47.63 37.10 38.73L37.16 38.79L37.11 38.74Q35.76 40.96 34.43 41.77L34.51 41.85L34.44 41.78Q34.33 40.77 34.48 39.05L34.52 39.10L34.57 39.15Q33.60 39.70 32.65 39.56L32.59 39.50L32.70 39.61Q29.65 39.18 28.36 35.56L28.40 35.59L28.37 35.56Q29.67 44.86 29.82 53.81L29.98 53.98L29.90 53.89Q30.07 62.87 28.84 72.25Z"/><path fill="#8e8ee6" d="M174.98 41.82L174.95 41.79L174.97 41.81Q174.09 42.31 173.90 43.31L173.93 43.34L173.83 49.66L173.79 49.62Q175.32 49.73 178.08 49.39L177.98 49.29L178.05 49.36Q178.00 49.88 177.95 50.93L177.97 50.95L178.07 51.05Q178.00 51.97 178.00 52.54L177.92 52.47L175.98 52.62L176.02 52.66Q174.91 52.64 173.81 52.64L173.82 52.64L173.92 52.75Q173.93 57.99 173.83 68.46L173.84 68.47L173.75 68.37Q171.11 68.60 169.26 69.45L169.08 69.27L169.23 69.43Q170.59 61.74 170.44 52.70L170.29 52.55L170.37 52.63Q169.58 52.59 167.96 52.26L167.93 52.23L167.95 52.25Q167.90 50.97 167.66 48.54L167.70 48.58L167.78 48.66Q169.11 49.23 170.30 49.47L170.22 49.38L170.35 49.51Q170.22 48.62 169.84 45.53L169.84 45.53L169.93 45.62Q169.62 43.03 169.62 41.84L169.65 41.86L169.49 41.71Q169.48 39.60 171.24 38.89L171.30 38.95L171.26 38.90Q172.39 38.56 178.43 37.51L178.41 37.49L178.42 37.50Q179.42 37.31 180.46 37.16L180.43 37.13L180.43 37.13Q180.17 38.11 179.98 39.20L179.89 39.11L179.56 41.12L179.50 41.05Q178.74 40.92 178.12 41.06L178.24 41.17L178.07 41.00Q177.38 41.07 175.00 41.84ZM181.77 43.23L181.87 43.33L181.74 43.20Q182.13 40.41 182.89 37.22L182.92 37.24L183.04 37.37Q182.16 37.67 180.54 38.43L180.62 38.51L181.00 36.27L181.01 36.28Q179.53 36.57 176.44 37.23L176.44 37.23L176.37 37.16Q174.95 37.31 170.95 38.46L170.91 38.41L170.91 38.41Q168.98 38.96 168.98 41.29L168.97 41.28L169.02 41.33Q169.11 41.80 169.20 42.22L169.08 42.10L169.08 42.11Q169.41 43.82 169.56 45.48L169.48 45.41L169.88 48.90L169.71 48.73Q168.11 48.37 167.30 47.80L167.34 47.84L167.26 47.76Q167.44 48.98 167.48 50.26L167.49 50.27L167.61 52.72L167.70 52.81Q168.56 53.01 169.56 53.10L169.53 53.07L169.57 55.73L170.03 55.72L170.07 55.75Q169.75 63.24 168.51 70.04L168.62 70.15L168.69 70.22Q169.82 69.49 171.30 69.16L171.24 69.11L171.09 71.76L171.12 71.79Q172.71 71.48 174.33 71.44L174.30 71.40L174.31 71.42Q175.71 71.24 177.28 71.58L177.38 71.67L177.32 71.61Q176.23 65.34 176.23 55.39L176.31 55.47L176.34 55.50Q177.66 55.45 180.28 55.54L180.32 55.58L180.34 53.27L180.35 53.28Q180.31 52.05 180.36 50.86L180.36 50.86L180.37 50.87Q179.74 50.96 178.41 51.29L178.49 51.37L178.35 51.24Q178.40 50.42 178.54 48.75L178.57 48.78L178.51 48.73Q177.40 48.95 176.40 49.05L176.41 49.06L176.41 49.06Q176.51 47.40 176.66 45.64L176.72 45.70L176.61 45.59Q176.81 44.79 177.47 44.36L177.42 44.31L177.55 44.44Q178.67 43.50 179.69 43.41L179.62 43.34L179.75 43.47Q180.82 43.42 181.87 43.33Z"/><path fill="#8d6fe5" d="M198.71 67.45L198.74 67.48L198.78 67.53Q201.06 64.47 207.00 55.38L206.90 55.27L206.90 55.27Q212.03 47.60 215.60 43.51L215.53 43.44L215.59 43.50Q213.05 43.96 210.43 43.96L210.36 43.88L210.38 43.91Q203.83 43.92 198.83 41.69L198.72 41.57L198.79 41.64Q197.96 39.25 197.11 37.30L197.19 37.38L197.03 37.22Q202.81 40.00 209.90 40.14L209.92 40.17L209.92 40.16Q216.41 40.33 222.89 37.95L222.84 37.90L222.78 37.84Q222.32 38.90 221.94 39.90L221.89 39.86L221.33 42.00L221.15 41.83Q217.34 46.39 212.34 53.67L212.37 53.70L208.22 59.74L208.15 59.66Q206.18 62.83 203.89 65.68L203.95 65.74L203.87 65.66Q207.96 64.85 212.10 64.95L212.15 65.00L212.06 64.90Q216.39 65.19 220.34 66.33L220.26 66.26L220.87 68.25L220.87 68.24Q221.20 69.29 221.63 70.33L221.63 70.34L221.60 70.31Q215.72 68.28 209.29 68.51L209.25 68.47L209.37 68.60Q202.89 68.77 197.27 71.30L197.35 71.37L197.43 71.45Q197.76 69.97 198.66 67.40ZM196.66 72.30L196.60 72.24L196.57 72.21Q198.17 71.53 199.17 71.19L199.19 71.22L199.08 71.10Q198.73 72.04 197.88 73.95L198.00 74.07L198.00 74.07Q205.01 71.28 212.49 71.57L212.55 71.63L212.50 71.59Q220.33 71.80 226.61 75.27L226.66 75.32L226.73 75.39Q225.04 72.46 224.04 69.75L223.87 69.58L223.93 69.64Q223.40 69.44 221.50 68.73L221.43 68.66L221.33 68.56Q221.20 67.72 220.67 65.86L220.56 65.75L220.67 65.85Q215.45 64.35 209.07 64.59L209.18 64.69L209.08 64.59Q211.75 61.17 216.18 54.23L216.18 54.23L216.27 54.32Q220.74 47.08 223.12 43.90L223.23 44.01L223.16 43.94Q223.67 42.07 224.96 38.69L225.05 38.78L224.95 38.68Q224.09 39.10 222.28 39.86L222.40 39.98L222.42 40.00Q222.77 38.93 223.67 37.02L223.68 37.02L223.77 37.12Q217.07 39.74 209.93 39.65L209.90 39.62L209.82 39.54Q202.37 39.42 196.19 36.28L196.33 36.42L196.25 36.35Q197.78 39.39 198.68 42.20L198.57 42.09L198.65 42.17Q199.96 42.77 200.96 43.05L200.94 43.03L200.95 43.05Q201.36 43.97 201.69 45.78L201.72 45.81L201.66 45.75Q206.22 46.98 212.32 46.75L212.38 46.81L212.39 46.82Q209.33 50.75 205.19 56.99L205.30 57.10L198.42 67.54L198.35 67.47Q197.87 69.04 196.59 72.23Z"/></svg>