<svg xmlns="http://www.w3.org/2000/svg" width="250" height="100" viewBox="0,0,250,100"><rect width="100%" height="100%" fill="#fff"/><path fill="#5ca3e9" d="M21.55 36.53L21.67 36.65L21.63 36.61Q26.33 39.74 32.28 40.02L32.34 40.08L32.45 40.19Q38.20 40.38 43.53 38.19L43.51 38.16L43.37 38.02Q43.26 38.92 42.31 42.39L42.22 42.30L42.18 42.26Q38.86 43.65 35.15 43.84L35.14 43.83L35.02 43.71Q31.33 43.93 27.72 43.02L27.73 43.04L27.82 43.13Q28.53 47.50 28.77 52.07L28.78 52.09L28.76 52.06Q31.44 52.51 33.44 52.46L33.29 52.31L33.36 52.38Q34.84 52.34 37.84 52.20L37.82 52.18L37.91 52.27Q37.86 53.08 37.86 53.93L37.88 53.95L37.90 55.64L37.80 55.54Q34.74 55.47 28.74 55.57L28.86 55.69L28.90 55.73Q28.74 60.71 28.03 65.70L28.20 65.88L28.18 65.86Q31.45 65.03 34.88 65.18L34.78 65.08L34.90 65.20Q38.28 65.29 41.52 66.34L41.47 66.29L41.40 66.23Q41.61 67.34 41.95 68.30L41.92 68.27L42.37 70.05L42.39 70.07Q38.45 68.51 34.16 68.51L34.16 68.50L34.21 68.55Q27.98 68.41 22.65 71.22L22.65 71.22L22.70 71.27Q25.56 62.71 25.23 53.81L25.26 53.85L25.31 53.89Q24.89 44.86 21.56 36.53ZM22.04 72.13L22.22 72.32L22.20 72.30Q23.63 71.25 24.58 70.82L24.61 70.85L24.74 70.98Q24.50 71.93 23.79 73.84L23.61 73.66L23.66 73.70Q29.37 71.28 35.70 71.61L35.75 71.66L35.69 71.61Q42.14 71.97 47.14 75.35L47.09 75.29L47.21 75.42Q45.70 72.19 44.84 69.76L44.87 69.79L44.84 69.76Q43.55 68.95 42.32 68.52L42.26 68.47L42.31 68.51Q41.95 66.92 41.76 65.92L41.66 65.82L41.66 65.82Q37.85 64.63 33.90 64.63L33.89 64.62L33.83 64.56Q32.42 64.58 31.00 64.72L31.07 64.80L30.96 64.68Q31.27 63.28 31.31 61.75L31.23 61.67L31.36 58.57L31.35 58.56Q33.56 58.38 35.79 58.43L35.84 58.47L35.90 58.53Q38.12 58.52 40.36 58.71L40.40 58.75L40.39 58.75Q40.31 57.57 40.31 56.38L40.29 56.36L40.26 53.95L39.16 53.95L39.34 54.12Q38.79 54.20 38.22 54.20L38.23 54.21L38.18 54.16Q38.16 53.28 38.35 51.66L38.29 51.60L38.31 51.62Q36.32 51.91 34.84 51.96L34.91 52.02L34.95 52.07Q33.67 51.98 31.39 51.88L31.35 51.85L31.32 51.82Q31.38 50.21 31.14 46.69L31.11 46.66L30.98 46.52Q32.29 46.70 33.53 46.70L33.65 46.82L33.56 46.72Q39.49 46.76 44.11 44.38L44.08 44.35L44.06 44.33Q44.84 41.44 45.93 38.68L45.87 38.62L46.02 38.77Q44.30 39.76 43.25 40.19L43.19 40.13L43.23 40.17Q43.50 39.11 44.07 37.16L44.23 37.31L44.19 37.27Q38.28 39.84 32.19 39.46L32.23 39.49L32.21 39.48Q25.64 39.14 20.83 35.57L20.83 35.57L20.75 35.49Q24.37 44.20 24.76 53.72L24.79 53.75L24.88 53.84Q25.31 63.79 22.17 72.26Z"/><path d="M11 72 C141 42,136 48,238 6" stroke="#ce89e6" fill="none"/><path fill="#4ddf96" d="M217.22 54.62L217.15 54.56L209.87 54.75L209.77 54.65Q206.19 54.78 202.52 54.68L202.48 54.63L202.54 54.70Q202.69 63.08 200.12 69.98L200.06 69.92L200.16 70.02Q197.88 70.64 195.69 71.50L195.52 71.33L195.65 71.46Q199.04 64.23 199.04 55.90L199.02 55.88L199.00 55.87Q199.15 45.41 194.01 36.61L193.97 36.57L193.94 36.54Q195.79 37.48 198.89 38.48L198.92 38.52L199.03 38.62Q201.61 44.87 202.28 50.96L202.26 50.94L202.29 50.97Q206.28 51.49 209.85 51.45L209.86 51.45L209.84 51.43Q213.19 51.45 217.33 51.12L217.30 51.08L217.22 51.00Q217.80 45.50 219.99 39.12L220.15 39.28L220.09 39.22Q222.46 38.64 225.27 37.59L225.28 37.61L225.37 37.70Q220.83 46.10 220.83 56.05L220.75 55.96L220.75 55.96Q220.72 63.69 223.67 70.35L223.69 70.38L223.67 70.36Q221.65 69.57 219.08 69.19L219.13 69.24L219.23 69.34Q217.00 62.92 217.14 54.55ZM218.82 69.70L218.90 69.78L218.85 69.73Q220.13 69.91 221.51 70.24L221.56 70.30L221.57 70.30Q221.87 71.08 222.68 72.94L222.64 72.89L222.70 72.95Q226.92 74.18 229.16 75.32L229.14 75.30L229.11 75.27Q223.61 67.62 223.22 57.30L223.17 57.24L223.17 57.25Q222.74 47.15 227.30 38.63L227.45 38.78L226.00 39.23L225.96 39.20Q225.47 39.61 224.71 39.80L224.66 39.75L224.60 39.69Q225.18 38.74 226.22 36.79L226.17 36.74L226.19 36.75Q222.97 38.15 219.69 38.77L219.56 38.65L219.61 38.70Q217.61 44.83 217.03 50.68L216.92 50.56L217.04 50.68Q213.85 50.87 210.80 50.87L210.74 50.81L210.84 50.91Q207.75 50.81 204.61 50.62L204.73 50.75L204.79 50.81Q204.42 46.63 203.04 41.54L203.00 41.50L202.98 41.48Q202.11 41.32 200.30 40.85L200.39 40.94L200.36 40.90Q199.95 39.45 199.38 38.16L199.31 38.09L199.42 38.20Q195.86 37.12 193.00 35.55L192.98 35.52L193.09 35.63Q198.81 44.92 198.81 55.91L198.76 55.87L198.79 55.90Q198.77 64.58 194.86 72.24L194.77 72.15L194.93 72.30Q195.83 71.97 197.50 71.26L197.33 71.09L197.35 71.12Q196.98 72.22 195.98 74.12L196.08 74.22L196.06 74.19Q199.42 72.80 202.22 72.27L202.34 72.39L202.36 72.40Q204.71 65.48 204.95 57.77L204.80 57.62L204.97 57.79Q206.82 57.55 210.82 57.50L210.86 57.55L210.89 57.57Q214.52 57.59 216.90 57.68L216.84 57.62L216.91 57.69Q217.12 64.76 218.79 69.66Z"/><path fill="#e183b2" d="M173.69 70.20L173.59 70.09L171.58 70.23L171.48 70.13Q167.27 70.15 166.08 67.49L166.04 67.45L166.11 67.52Q167.54 66.18 169.34 64.80L169.30 64.76L169.32 64.78Q170.18 67.64 173.75 67.45L173.73 67.43L173.72 67.42Q174.60 67.26 175.89 66.97L175.99 67.07L175.96 67.05Q177.14 66.42 177.05 65.23L177.05 65.23L176.98 65.16Q176.89 63.78 174.65 62.92L174.69 62.97L169.85 60.98L169.83 60.96Q167.03 59.39 166.60 54.97L166.62 54.99L166.55 54.92Q166.28 52.23 168.99 51.51L169.12 51.64L168.99 51.50Q170.32 51.36 174.03 51.36L173.86 51.19L173.97 51.30Q180.09 51.33 181.24 54.47L181.19 54.43L181.28 54.52Q180.36 55.07 179.45 55.64L179.38 55.57L177.76 56.90L177.74 56.87Q177.09 54.47 173.05 54.19L173.04 54.18L173.00 54.13Q172.38 54.28 171.10 54.80L171.12 54.83L171.13 54.84Q170.34 55.19 170.34 56.57L170.25 56.48L170.32 56.55Q170.87 58.00 173.15 58.86L172.97 58.67L173.08 58.79Q174.47 59.32 177.80 60.70L177.71 60.61L177.67 60.57Q179.99 61.65 180.22 64.84L180.23 64.84L180.32 64.93Q180.37 65.70 180.28 66.94L180.21 66.87L180.30 66.96Q180.11 67.91 179.40 68.72L179.47 68.79L179.45 68.77Q177.49 70.19 173.68 70.19ZM179.64 73.44L179.70 73.49L179.70 73.50Q180.79 73.49 182.50 73.11L182.39 72.99L182.43 73.04Q183.84 72.26 183.60 70.74L183.66 70.80L183.58 70.71Q183.53 70.04 183.15 68.04L183.08 67.98L183.07 67.97Q182.39 64.29 180.15 62.76L180.21 62.82L180.26 62.88Q179.55 61.07 177.98 60.17L177.86 60.04L177.97 60.16Q176.45 59.68 173.35 58.49L173.20 58.33L173.33 58.47Q173.49 57.86 173.82 57.72L173.82 57.72L173.73 57.63Q174.58 57.14 175.39 57.09L175.40 57.11L175.32 57.03Q176.36 57.02 177.31 57.35L177.37 57.41L177.45 57.59L177.47 57.46L177.85 57.61L177.67 57.47L177.79 57.59Q179.24 58.28 179.48 59.85L179.40 59.78L179.28 59.66Q180.91 58.67 183.29 56.58L183.31 56.60L183.31 56.59Q183.01 55.72 181.77 54.25L181.76 54.24L181.73 54.21Q180.37 50.89 173.99 50.75L174.05 50.81L174.01 50.77Q170.00 50.66 167.52 51.37L167.50 51.35L167.52 51.37Q165.85 52.18 166.14 54.80L166.13 54.79L166.00 54.65Q166.13 56.22 167.28 58.83L167.26 58.82L167.27 58.83Q168.02 60.30 169.31 61.20L169.28 61.18L169.26 61.15Q170.07 62.97 171.69 63.82L171.80 63.93L171.69 63.82Q172.99 64.27 174.18 64.74L174.08 64.64L176.58 65.71L176.44 65.57Q176.14 67.08 173.72 66.94L173.64 66.86L173.63 66.86Q173.06 66.90 171.54 66.52L171.63 66.62L171.62 66.42L171.40 66.48L171.50 66.58Q170.37 66.07 169.56 64.21L169.62 64.27L169.60 64.25Q166.86 66.13 165.48 67.56L165.49 67.57L165.52 67.60Q165.91 68.75 167.20 69.75L167.01 69.56L166.89 69.82L166.98 69.91Q168.81 72.60 174.09 73.07L174.10 73.08L174.05 73.03Q175.48 73.04 179.53 73.32Z"/><path fill="#63dda0" d="M103.78 70.55L103.63 70.40L103.72 70.49Q100.04 70.62 98.47 69.95L98.42 69.90L98.60 70.08Q96.17 69.08 96.27 65.99L96.19 65.92L96.17 65.89Q96.29 61.59 96.29 62.30L96.32 62.33L96.31 62.31Q96.43 55.78 92.86 49.73L92.82 49.69L92.88 49.75Q95.19 50.78 97.67 51.25L97.67 51.26L97.70 51.29Q99.84 57.04 99.69 62.66L99.66 62.63L99.83 62.79Q99.55 64.56 100.59 66.08L100.55 66.03L100.65 66.14Q101.72 67.72 103.62 67.49L103.62 67.49L104.13 67.38L104.03 67.28Q105.79 67.27 106.81 66.32L106.72 66.23L106.72 66.24Q107.76 65.30 107.76 64.11L107.78 64.13L107.89 64.24Q107.75 63.81 107.70 63.57L107.77 63.65L107.85 63.72Q107.62 57.03 109.05 51.60L109.14 51.69L109.03 51.58Q110.40 51.56 111.63 51.28L111.70 51.34L114.19 50.70L114.20 50.70Q110.92 56.90 111.30 63.85L111.31 63.85L111.34 63.89Q111.60 67.75 109.46 69.18L109.51 69.23L109.46 69.19Q107.75 70.19 103.61 70.38ZM106.53 73.39L106.64 73.50L106.64 73.51Q110.83 73.55 113.11 72.60L113.18 72.67L113.15 72.64Q114.37 71.77 114.37 70.01L114.44 70.07L114.30 69.93Q114.42 68.91 114.08 66.96L113.96 66.84L114.03 66.90Q113.37 62.91 113.84 59.15L113.90 59.21L113.90 59.21Q114.37 55.25 116.13 51.82L116.15 51.85L116.14 51.84Q115.37 52.26 113.70 52.78L113.77 52.84L113.63 52.71Q113.95 51.97 114.33 51.26L114.32 51.26L114.99 49.79L115.02 49.82Q112.57 50.60 108.62 51.22L108.62 51.22L108.65 51.25Q107.19 57.31 107.38 63.68L107.39 63.69L107.38 63.68Q107.39 66.21 104.05 66.83L104.03 66.80L103.64 66.98L103.42 66.95L102.22 66.75L102.22 66.75Q102.24 65.77 102.28 65.15L102.21 65.08L102.24 65.11Q102.36 59.32 101.50 53.80L101.54 53.85L100.24 53.68L100.35 53.80Q99.72 53.79 99.06 53.64L98.96 53.55L99.07 53.66Q98.45 51.76 98.12 50.81L98.10 50.78L98.10 50.79Q94.72 50.36 91.92 48.74L91.86 48.69L91.97 48.79Q94.56 53.09 95.46 57.33L95.42 57.29L95.51 57.38Q96.09 60.10 95.90 64.48L95.95 64.53L95.87 64.45Q95.92 64.64 95.82 66.02L95.76 65.95L95.79 65.99Q95.56 68.90 97.28 70.09L97.43 70.24L97.32 70.13Q97.83 72.97 106.58 73.45Z"/><path fill="#cf90e4" d="M130.77 80.70L130.85 80.77L130.89 80.81Q134.49 75.94 138.10 68.18L138.03 68.11L138.13 68.21Q134.14 59.94 126.53 49.85L126.58 49.90L126.49 49.82Q128.91 51.28 132.38 52.09L132.37 52.08L132.49 52.20Q136.87 58.01 139.92 64.53L139.83 64.43L139.92 64.53Q142.55 57.83 146.41 52.31L146.42 52.33L146.51 52.42Q149.18 51.90 151.80 50.90L151.79 50.89L151.85 50.95Q147.61 55.75 143.28 65.03L143.29 65.04L139.71 72.50L139.80 72.59Q137.93 76.44 135.74 79.72L135.75 79.73L135.77 79.75Q132.71 80.16 130.90 80.83ZM138.67 82.55L138.64 82.52L138.56 82.44Q140.77 78.89 142.58 74.80L142.43 74.65L146.03 66.92L145.99 66.89Q150.29 56.77 154.43 51.77L154.47 51.82L154.55 51.89Q152.78 52.64 150.40 53.50L150.34 53.44L151.70 51.75L151.64 51.69Q152.44 50.92 153.20 50.06L153.10 49.97L153.11 49.98Q149.90 51.43 146.33 52.00L146.27 51.94L146.32 51.99Q142.72 56.71 140.29 62.28L140.47 62.47L140.36 62.35Q138.36 58.25 136.12 54.73L136.02 54.64L136.07 54.68Q135.81 54.66 135.36 54.61L135.33 54.59L135.36 54.62Q135.00 54.66 134.77 54.66L134.67 54.57L134.69 54.58Q133.75 53.02 132.56 51.60L132.58 51.62L132.60 51.64Q128.62 50.80 125.20 48.66L125.22 48.69L125.25 48.72Q133.00 58.66 137.62 68.18L137.57 68.13L137.69 68.24Q134.89 74.49 129.80 81.53L129.91 81.64L129.81 81.54Q130.78 81.13 131.78 80.94L131.93 81.10L133.91 80.59L133.77 80.46Q133.10 81.45 131.62 83.50L131.68 83.56L131.69 83.57Q134.48 82.74 138.57 82.46Z"/><path d="M10 86 C128 7,146 26,245 27" stroke="#d2af46" fill="none"/><path fill="#b4d552" d="M72.10 52.81L72.02 52.74L72.00 52.72Q73.00 52.72 74.76 52.53L74.69 52.45L74.76 52.53Q74.65 53.27 74.65 54.08L74.81 54.23L74.71 55.70L74.66 55.66Q73.65 55.70 72.60 55.79L72.55 55.74L72.63 55.82Q71.53 55.82 70.49 55.77L70.48 55.76L70.51 55.79Q66.88 63.44 62.60 69.20L62.66 69.26L62.62 69.22Q59.53 70.08 57.91 70.84L57.98 70.91L58.01 70.94Q63.11 63.76 66.92 55.91L66.89 55.88L63.63 55.91L63.59 55.87Q63.48 54.09 63.34 52.42L63.46 52.55L63.45 52.54Q65.80 52.70 68.37 52.70L68.38 52.71L70.85 48.19L70.85 48.18Q72.05 45.76 73.57 43.77L73.53 43.72L73.42 43.62Q71.55 43.89 69.55 43.89L69.49 43.83L69.59 43.93Q61.96 43.91 57.25 41.15L57.26 41.16L56.35 38.92L56.49 39.06Q55.99 37.94 55.51 36.85L55.46 36.79L55.53 36.86Q60.95 40.14 68.09 40.42L68.06 40.40L68.08 40.42Q74.54 40.73 80.96 38.26L80.99 38.29L80.91 38.21Q80.63 38.69 80.01 39.79L80.11 39.89L80.04 39.82Q75.52 45.76 71.95 52.66ZM82.07 41.56L82.04 41.53L83.26 38.99L83.25 38.98Q82.12 39.65 80.02 40.56L80.07 40.60L80.35 40.27L80.33 40.25Q80.34 39.92 80.48 39.78L80.47 39.77L80.65 39.95Q80.98 38.95 81.89 37.29L81.88 37.28L82.00 37.40Q75.32 40.24 68.14 39.95L68.02 39.84L68.11 39.93Q60.49 39.49 54.54 35.77L54.54 35.78L54.68 35.92Q55.97 38.25 57.02 41.59L57.02 41.59L56.93 41.49Q58.32 42.32 59.32 42.70L59.30 42.68L59.27 42.65Q59.50 43.12 60.07 45.45L60.18 45.56L60.18 45.56Q64.15 47.14 71.05 46.95L70.99 46.90L70.91 46.82Q70.63 47.64 68.16 52.35L68.13 52.32L68.08 52.27Q65.56 52.32 63.09 52.08L63.07 52.06L63.02 52.02Q63.23 53.18 63.23 54.27L63.22 54.26L63.06 56.24L65.30 56.39L65.29 58.14L65.16 58.01Q60.40 67.38 56.92 71.85L56.91 71.84L56.96 71.89Q58.87 70.85 60.92 70.23L60.99 70.30L60.95 70.27Q60.13 71.44 58.42 73.58L58.32 73.49L58.30 73.46Q62.37 72.20 65.41 71.92L65.39 71.90L65.26 71.76Q69.03 67.16 72.94 58.69L72.92 58.68L77.11 58.82L77.13 58.84Q77.06 57.72 77.06 56.58L77.09 56.61L77.19 54.47L77.04 54.33Q76.77 54.39 76.08 54.44L76.11 54.47L76.16 54.52Q75.31 54.40 74.98 54.40L74.95 54.38L75.03 54.46Q75.00 54.28 75.04 54.09L75.00 54.04L75.10 53.81L75.00 53.72Q78.22 47.37 82.07 41.56Z"/></svg>