<svg xmlns="http://www.w3.org/2000/svg" width="250" height="100" viewBox="0,0,250,100"><rect width="100%" height="100%" fill="#fff"/><path d="M17 82 C121 42,135 76,235 12" stroke="#dab647" fill="none"/><path d="M7 27 C124 76,113 92,235 28" stroke="#d38e4a" fill="none"/><path fill="#426be5" d="M24.20 77.70L24.14 77.64L24.01 77.51Q22.85 77.78 20.47 78.16L20.63 78.31L20.54 78.22Q22.19 75.55 23.48 73.93L23.53 73.98L23.38 73.84Q25.67 74.31 25.86 74.31L25.85 74.30L25.91 74.37Q26.15 74.32 26.82 74.18L26.76 74.12L26.85 74.21Q27.67 74.08 27.91 74.08L27.86 74.03L27.94 74.11Q31.05 73.69 30.95 70.98L30.96 70.99L31.08 71.11Q31.08 69.30 30.93 61.49L30.85 61.41L30.80 61.36Q30.83 57.01 30.92 51.82L30.88 51.78L32.64 51.54L32.76 51.66Q33.40 51.35 34.25 51.06L34.30 51.11L34.27 51.08Q34.06 56.68 34.11 62.15L34.08 62.11L34.01 62.05Q34.05 67.51 34.71 72.98L34.73 73.00L34.83 73.10Q34.83 73.38 34.83 73.72L34.86 73.75L34.98 73.86Q34.95 75.89 32.86 76.36L32.75 76.26L32.73 76.23Q28.89 76.77 24.09 77.58ZM32.59 47.35L29.98 43.50L29.96 43.49Q31.21 41.69 33.50 38.22L33.39 38.11L33.39 38.11Q34.43 39.44 36.09 41.72L35.97 41.60L32.57 47.33ZM36.36 80.63L36.33 80.59L36.31 80.58Q36.91 80.55 37.86 80.13L37.89 80.15L37.90 80.17Q38.29 79.27 38.29 78.70L38.33 78.74L38.30 78.71Q38.26 78.24 38.12 77.48L38.12 77.48L38.13 77.50Q36.51 69.55 36.51 59.65L36.45 59.58L36.49 59.63Q36.46 56.03 36.65 52.41L36.81 52.57L36.66 52.42Q35.99 52.65 34.56 53.03L34.64 53.12L34.64 53.12Q34.60 52.46 34.65 51.79L34.75 51.89L34.88 50.54L34.90 50.56Q32.75 51.37 30.52 51.42L30.39 51.29L30.49 51.39Q30.24 56.61 30.29 61.08L30.33 61.13L30.57 71.03L30.51 70.97Q30.66 73.49 27.94 73.64L27.90 73.59L27.92 73.61Q27.71 73.69 27.06 73.76L26.97 73.66L27.06 73.76Q26.38 73.79 26.05 73.79L26.03 73.77L26.06 73.80Q25.47 73.78 23.52 73.26L23.52 73.25L23.49 73.22Q22.92 73.99 21.54 76.08L21.48 76.03L19.54 78.89L19.67 79.02Q20.63 78.65 22.68 78.18L22.86 78.35L22.22 79.19L21.55 80.00L21.59 80.04Q24.43 79.83 26.10 79.93L26.09 79.92L25.96 79.79Q28.90 80.06 36.32 80.59ZM32.45 48.16L32.60 48.32L32.86 47.48L32.92 47.54Q33.51 48.22 34.70 50.22L34.66 50.18L34.55 50.07Q36.47 46.19 38.42 42.33L38.44 42.35L38.47 42.38Q37.24 40.39 36.05 38.77L36.11 38.83L36.10 38.83Q35.73 38.97 35.30 39.64L35.32 39.66L35.45 39.79Q34.78 38.84 33.54 37.22L33.59 37.27L33.63 37.31Q32.07 39.22 29.16 43.40L29.29 43.52L29.25 43.49Q30.34 44.95 32.48 48.19Z"/><path fill="#62dea0" d="M208.04 56.03L208.06 56.06L208.17 56.16Q207.79 56.07 207.41 56.07L207.45 56.11L207.35 56.01Q205.75 56.08 203.94 57.12L203.99 57.17L203.92 57.10Q202.22 58.45 202.22 60.82L202.30 60.90L202.29 60.90Q202.22 65.11 204.13 66.77L204.23 66.88L204.15 66.80Q205.30 68.23 208.15 68.23L208.28 68.36L208.11 68.19Q208.62 68.42 209.01 68.42L208.86 68.28L208.86 68.27Q211.08 68.35 212.50 66.30L212.53 66.33L212.51 66.31Q213.81 64.42 213.71 62.18L213.65 62.11L213.68 62.15Q213.85 61.65 213.85 61.13L213.69 60.97L213.71 60.99Q213.79 58.84 212.08 57.38L212.05 57.36L212.11 57.42Q210.36 55.93 208.13 56.12ZM213.70 68.78L213.71 68.79L213.71 68.80Q212.40 71.15 207.74 71.29L207.71 71.27L207.91 71.46Q203.48 71.41 201.48 69.41L201.63 69.56L201.62 69.55Q199.65 67.20 198.65 61.21L198.81 61.37L198.72 61.28Q198.37 59.12 198.37 57.55L198.38 57.55L198.34 57.51Q198.35 55.29 199.26 53.96L199.31 54.01L199.22 53.92Q200.93 52.21 204.64 52.21L204.62 52.19L204.69 52.26Q212.54 52.21 214.92 55.44L214.86 55.39L215.00 55.52Q215.19 54.48 215.72 52.48L215.69 52.45L215.81 52.57Q217.28 52.09 220.32 51.09L220.33 51.10L220.39 51.15Q217.25 58.10 216.96 66.00L216.97 66.01L217.02 66.06Q216.66 73.69 219.33 80.98L219.40 81.05L219.37 81.02Q217.24 80.27 215.01 79.94L214.98 79.92L215.02 79.96Q213.84 74.97 213.70 68.78ZM214.74 80.38L214.71 80.36L214.70 80.35Q215.64 80.58 217.40 80.96L217.25 80.80L217.28 80.83Q217.65 81.82 218.36 83.58L218.23 83.45L218.27 83.49Q221.56 84.45 224.42 86.07L224.34 85.99L224.44 86.09Q219.45 77.92 219.45 67.26L219.44 67.24L219.34 67.14Q219.40 59.25 222.49 52.02L222.48 52.01L222.53 52.06Q221.65 52.42 219.94 53.23L219.97 53.26L219.93 53.22Q220.30 52.20 221.11 50.25L221.16 50.31L221.16 50.30Q219.20 50.96 215.20 52.06L215.25 52.11L215.27 52.13Q215.05 52.76 214.67 54.24L214.63 54.20L214.62 54.19Q212.14 51.85 204.48 51.66L204.51 51.70L204.56 51.75Q200.55 51.63 198.83 53.49L198.85 53.51L198.70 53.36Q197.79 54.82 197.83 57.20L197.91 57.28L197.94 57.31Q198.00 60.98 199.24 65.69L199.30 65.76L199.18 65.64Q200.00 68.64 201.14 69.83L201.12 69.81L201.58 70.28L201.69 70.38Q203.18 73.87 209.99 74.16L209.91 74.08L209.86 74.03Q211.21 74.15 213.50 73.77L213.56 73.83L213.43 73.70Q213.95 77.50 214.71 80.36ZM210.44 58.96L210.34 58.86L210.52 59.04Q211.83 59.02 212.88 59.40L212.84 59.36L212.90 59.42Q213.12 60.06 213.26 60.83L213.21 60.77L213.31 60.87Q213.34 61.48 213.25 62.24L213.31 62.31L213.34 62.33Q213.14 64.51 211.85 66.13L212.01 66.29L211.97 66.25Q210.43 67.94 208.10 67.70L208.27 67.88L208.16 67.76Q206.54 67.77 205.36 67.24L205.36 67.25L205.39 67.28Q204.88 66.20 204.88 64.68L204.93 64.73L205.05 64.84Q204.94 64.35 204.94 63.97L204.96 63.99L204.82 63.85Q204.90 61.74 206.56 60.29L206.63 60.35L206.59 60.32Q208.19 58.80 210.38 58.90Z"/><path fill="#6767e9" d="M63.72 57.04L63.75 57.08L63.70 57.03Q63.67 56.99 67.90 56.94L68.03 57.07L68.04 57.08Q70.68 56.86 72.01 56.91L72.19 57.09L72.08 56.98Q70.71 53.33 67.67 46.28L67.69 46.31L67.72 46.34Q67.03 48.13 65.73 51.70L65.80 51.77L65.73 51.71Q64.37 55.22 63.65 56.98ZM73.43 60.04L73.59 60.21L73.53 60.15Q70.59 60.01 67.83 60.06L67.85 60.08L67.90 60.13Q65.05 60.13 62.19 60.37L62.22 60.40L62.27 60.44Q60.31 64.67 56.26 69.91L56.35 70.00L56.31 69.95Q53.10 70.74 51.39 71.36L51.26 71.24L51.30 71.27Q57.70 64.20 63.55 47.50L63.62 47.57L63.53 47.48Q65.18 43.28 66.89 39.23L66.90 39.24L66.87 39.20Q67.25 39.21 67.68 39.21L67.67 39.20L68.62 39.24L68.53 39.15Q69.52 40.90 75.56 55.47L75.62 55.52L75.64 55.54Q79.70 65.31 84.69 70.50L84.72 70.52L84.59 70.39Q84.06 70.34 79.21 69.25L79.14 69.18L79.09 69.13Q75.99 65.31 73.51 60.13ZM79.04 69.60L79.09 69.66L79.88 69.83L79.89 69.84Q80.23 69.88 80.61 70.03L80.47 69.89L80.59 70.01Q80.92 70.39 83.21 72.92L83.30 73.01L83.14 72.85Q87.73 74.01 90.73 75.29L90.80 75.36L90.77 75.34Q83.83 69.58 78.83 59.59L78.84 59.60L78.81 59.57Q76.78 55.45 74.98 50.50L75.12 50.65L71.54 41.12L71.55 41.13Q71.26 41.27 70.98 41.27L70.90 41.19L70.32 41.28L70.41 41.37Q69.89 40.46 68.98 38.75L68.97 38.74L68.98 38.75Q68.24 38.67 67.67 38.63L67.82 38.77L67.78 38.74Q67.26 38.75 66.60 38.75L66.53 38.68L66.50 38.64Q64.80 43.61 59.94 56.31L60.01 56.38L59.91 56.28Q55.96 66.18 50.15 72.17L50.20 72.22L50.27 72.29Q51.50 71.71 54.02 70.95L53.97 70.89L54.03 70.95Q53.08 72.06 51.13 74.29L51.01 74.17L51.20 74.36Q53.17 73.38 58.07 72.43L58.16 72.52L58.13 72.48Q62.36 67.01 64.31 62.96L64.42 63.07L64.45 63.10Q66.49 62.81 69.39 62.86L69.49 62.95L69.41 62.87Q72.83 62.92 74.54 63.01L74.59 63.06L74.63 63.10Q76.14 65.99 79.09 69.65ZM69.43 51.28L69.40 51.25L69.49 51.35Q70.48 53.86 71.43 56.47L71.48 56.52L67.37 56.55L67.39 56.57Q68.10 54.76 69.43 51.29Z"/><path fill="#7ae5af" d="M104.07 41.77L104.19 41.88L104.06 41.76Q103.28 42.36 103.09 43.35L103.11 43.37L103.00 49.68L103.00 49.69Q104.53 49.79 107.29 49.45L107.13 49.30L107.13 49.30Q107.22 49.96 107.18 51.01L107.09 50.92L107.10 50.94Q107.09 51.93 107.09 52.50L107.11 52.52L105.15 52.65L105.04 52.54Q104.12 52.71 103.03 52.71L103.00 52.69L102.98 52.67Q103.13 58.05 103.03 68.52L102.88 68.37L103.01 68.49Q100.17 68.51 98.32 69.37L98.28 69.33L98.39 69.44Q99.65 61.66 99.51 52.62L99.54 52.66L99.57 52.68Q98.70 52.57 97.08 52.24L97.00 52.16L97.13 52.29Q97.16 51.08 96.92 48.65L96.75 48.49L96.90 48.63Q98.32 49.29 99.51 49.53L99.36 49.38L99.41 49.43Q99.32 48.58 98.94 45.49L99.08 45.62L99.05 45.59Q98.65 42.91 98.65 41.72L98.74 41.81L98.63 41.70Q98.60 39.58 100.36 38.86L100.47 38.98L100.41 38.91Q101.52 38.55 107.56 37.50L107.53 37.47L107.53 37.47Q108.59 37.34 109.63 37.19L109.54 37.09L109.68 37.24Q109.36 38.16 109.17 39.25L109.11 39.20L108.74 41.15L108.82 41.23Q107.95 40.98 107.33 41.13L107.33 41.13L107.32 41.11Q106.47 41.02 104.09 41.78ZM110.86 43.18L110.85 43.16L110.97 43.29Q111.44 40.57 112.20 37.38L112.19 37.37L112.18 37.36Q111.44 37.81 109.82 38.57L109.77 38.52L110.23 36.36L110.29 36.42Q108.67 36.56 105.58 37.23L105.57 37.23L105.56 37.21Q104.15 37.37 100.15 38.51L100.03 38.39L100.07 38.43Q98.26 39.09 98.26 41.42L98.11 41.27L98.15 41.32Q98.26 41.81 98.35 42.23L98.27 42.15L98.27 42.15Q98.52 43.78 98.66 45.44L98.77 45.55L98.97 48.85L98.90 48.78Q97.15 48.26 96.34 47.69L96.50 47.85L96.38 47.73Q96.54 48.94 96.58 50.22L96.65 50.28L96.74 52.71L96.81 52.78Q97.61 52.91 98.61 53.00L98.55 52.95L98.72 55.73L99.08 55.61L99.11 55.64Q99.01 63.35 97.77 70.16L97.67 70.05L97.65 70.03Q98.91 69.44 100.38 69.10L100.49 69.21L100.16 71.69L100.23 71.76Q101.81 71.43 103.42 71.38L103.45 71.41L103.37 71.33Q104.93 71.32 106.50 71.65L106.45 71.60L106.60 71.75Q105.47 65.44 105.47 55.49L105.40 55.42L105.48 55.50Q106.85 55.49 109.47 55.59L109.54 55.65L109.51 53.29L109.41 53.19Q109.50 52.09 109.55 50.90L109.59 50.95L109.56 50.91Q108.96 51.03 107.63 51.37L107.57 51.31L107.47 51.20Q107.59 50.47 107.73 48.81L107.66 48.74L107.77 48.84Q106.69 49.10 105.70 49.20L105.61 49.11L105.66 49.16Q105.69 47.43 105.83 45.67L105.69 45.53L105.82 45.65Q106.03 44.86 106.69 44.43L106.59 44.34L106.54 44.29Q107.80 43.50 108.83 43.40L108.78 43.35L108.82 43.40Q109.88 43.34 110.93 43.25Z"/><path fill="#62d99e" d="M174.56 70.47L174.51 70.43L174.48 70.39Q170.89 70.61 169.32 69.94L169.27 69.89L169.28 69.90Q166.93 68.98 167.03 65.89L166.99 65.85L166.95 65.82Q167.20 61.64 167.20 62.36L167.25 62.40L167.30 62.45Q167.30 55.79 163.74 49.75L163.61 49.63L163.61 49.62Q166.13 50.86 168.60 51.33L168.64 51.37L168.62 51.35Q170.65 56.99 170.50 62.61L170.57 62.68L170.62 62.72Q170.49 64.64 171.53 66.16L171.49 66.11L171.56 66.18Q172.66 67.81 174.56 67.57L174.58 67.59L174.96 67.36L174.92 67.31Q176.59 67.23 177.62 66.27L177.57 66.23L177.72 66.37Q178.79 65.47 178.79 64.28L178.78 64.27L178.71 64.20Q178.63 63.84 178.58 63.60L178.62 63.64L178.58 63.60Q178.58 57.12 180.00 51.70L179.93 51.62L180.03 51.72Q181.34 51.65 182.58 51.36L182.40 51.19L184.93 50.57L184.97 50.62Q181.89 57.01 182.28 63.96L182.12 63.80L182.13 63.82Q182.52 67.83 180.38 69.25L180.35 69.22L180.32 69.19Q178.64 70.22 174.49 70.41ZM177.37 73.38L177.53 73.54L177.55 73.56Q181.78 73.65 184.07 72.70L184.09 72.72L184.13 72.76Q185.22 71.76 185.22 70.00L185.27 70.05L185.19 69.97Q185.21 68.84 184.88 66.89L184.80 66.81L184.95 66.97Q184.39 63.07 184.86 59.31L184.72 59.17L184.86 59.31Q185.29 55.31 187.05 51.89L187.00 51.84L186.99 51.83Q186.30 52.33 184.64 52.86L184.58 52.79L184.53 52.75Q184.79 51.96 185.17 51.25L185.31 51.38L185.98 49.91L185.96 49.89Q183.45 50.62 179.50 51.24L179.53 51.27L179.45 51.19Q177.95 57.20 178.14 63.58L178.26 63.70L178.13 63.58Q178.28 66.24 174.94 66.86L174.96 66.88L174.56 67.05L174.39 67.07L173.13 66.81L173.15 66.83Q173.07 65.75 173.12 65.13L173.06 65.07L173.08 65.09Q173.34 59.45 172.49 53.93L172.46 53.90L171.24 53.83L171.17 53.76Q170.52 53.73 169.85 53.58L169.79 53.52L169.81 53.54Q169.31 51.75 168.97 50.80L168.98 50.81L168.94 50.77Q165.50 50.28 162.69 48.66L162.67 48.64L162.82 48.78Q165.45 53.13 166.36 57.37L166.25 57.26L166.37 57.39Q166.96 60.11 166.77 64.49L166.80 64.53L166.82 64.54Q166.87 64.73 166.77 66.11L166.78 66.12L166.79 66.13Q166.55 69.03 168.26 70.22L168.19 70.15L168.16 70.11Q168.76 73.05 177.52 73.52Z"/><path fill="#a058e9" d="M127.94 36.63L127.93 36.62L127.94 36.63Q132.69 39.81 138.64 40.09L138.66 40.12L138.73 40.19Q144.36 40.25 149.69 38.06L149.64 38.01L149.82 38.19Q149.41 38.78 148.46 42.25L148.46 42.25L148.42 42.21Q144.98 43.48 141.27 43.67L141.38 43.79L141.44 43.85Q137.57 43.88 133.96 42.98L133.97 42.99L134.11 43.14Q134.90 47.59 135.14 52.16L135.08 52.10L135.17 52.19Q137.64 52.42 139.64 52.37L139.62 52.35L139.59 52.33Q141.09 52.30 144.09 52.16L144.26 52.33L144.14 52.21Q144.14 53.07 144.14 53.93L144.22 54.00L144.06 55.51L144.18 55.63Q141.07 55.52 135.08 55.62L135.06 55.60L135.06 55.60Q135.06 60.74 134.34 65.73L134.32 65.71L134.35 65.74Q137.63 64.92 141.05 65.07L141.09 65.11L141.16 65.17Q144.53 65.26 147.77 66.31L147.71 66.26L147.74 66.28Q147.82 67.27 148.15 68.22L148.12 68.18L148.65 70.04L148.81 70.20Q144.65 68.43 140.37 68.43L140.38 68.44L140.35 68.41Q134.42 68.56 129.09 71.37L129.10 71.38L129.09 71.37Q132.02 62.88 131.68 53.98L131.68 53.98L131.68 53.98Q131.22 44.90 127.89 36.58ZM128.33 72.14L128.40 72.21L128.37 72.18Q130.07 71.41 131.02 70.98L131.03 70.98L130.92 70.88Q130.79 71.94 130.08 73.84L129.89 73.65L129.90 73.66Q135.73 71.35 142.06 71.69L142.01 71.64L141.98 71.61Q148.42 71.96 153.42 75.34L153.54 75.46L153.46 75.38Q152.05 72.25 151.19 69.82L151.17 69.81L151.21 69.85Q149.96 69.07 148.72 68.64L148.55 68.47L148.70 68.63Q148.16 66.84 147.97 65.84L147.96 65.84L148.05 65.92Q144.21 64.70 140.26 64.70L140.24 64.68L140.14 64.58Q138.68 64.55 137.25 64.69L137.29 64.73L137.39 64.83Q137.46 63.19 137.51 61.67L137.41 61.57L137.54 58.46L137.57 58.49Q139.90 58.44 142.14 58.49L142.17 58.52L142.20 58.55Q144.38 58.50 146.62 58.69L146.62 58.69L146.71 58.78Q146.58 57.55 146.58 56.36L146.56 56.34L146.59 54.00L145.64 54.14L145.48 53.98Q145.09 54.20 144.51 54.20L144.44 54.13L144.47 54.16Q144.36 53.19 144.55 51.57L144.57 51.59L144.54 51.57Q142.63 51.94 141.16 51.99L141.18 52.01L141.18 52.02Q139.94 51.97 137.66 51.87L137.77 51.98L137.72 51.93Q137.62 50.17 137.39 46.65L137.32 46.58L137.30 46.56Q138.64 46.76 139.87 46.76L139.95 46.83L139.89 46.77Q145.82 46.80 150.43 44.42L150.41 44.39L150.45 44.43Q151.06 41.39 152.16 38.63L152.21 38.67L152.12 38.59Q150.48 39.66 149.43 40.09L149.48 40.14L149.47 40.12Q149.81 39.13 150.38 37.18L150.54 37.34L150.54 37.34Q144.60 39.87 138.51 39.49L138.47 39.45L138.61 39.59Q131.91 39.13 127.11 35.56L127.08 35.53L127.19 35.65Q130.69 44.24 131.07 53.75L131.14 53.82L131.12 53.80Q131.46 63.66 128.32 72.13Z"/></svg>