<svg xmlns="http://www.w3.org/2000/svg" width="250" height="100" viewBox="0,0,250,100"><rect width="100%" height="100%" fill="#fff"/><path fill="#e24abc" d="M178.27 52.70L178.22 52.65L178.32 52.75Q179.26 52.69 181.02 52.50L181.02 52.50L180.96 52.44Q181.05 53.39 181.05 54.19L181.04 54.18L181.00 55.71L181.00 55.71Q179.93 55.69 178.88 55.78L178.99 55.89L179.00 55.90Q177.79 55.79 176.74 55.74L176.78 55.78L176.79 55.78Q173.26 63.53 168.97 69.29L168.98 69.29L168.96 69.27Q165.85 70.11 164.23 70.88L164.24 70.88L164.12 70.76Q169.37 63.74 173.18 55.88L173.05 55.76L169.89 55.88L169.90 55.89Q169.82 54.15 169.68 52.48L169.63 52.44L169.76 52.57Q172.14 52.75 174.71 52.75L174.68 52.72L177.04 48.09L177.06 48.11Q178.20 45.63 179.72 43.63L179.76 43.67L179.80 43.71Q177.82 43.88 175.82 43.88L175.84 43.89L175.84 43.89Q168.22 43.89 163.51 41.13L163.63 41.24L162.77 39.05L162.77 39.06Q162.34 38.00 161.86 36.91L161.90 36.95L161.86 36.91Q167.17 40.07 174.30 40.36L174.35 40.41L174.30 40.36Q180.74 40.66 187.17 38.18L187.30 38.31L187.18 38.20Q186.98 38.75 186.36 39.85L186.35 39.84L186.40 39.89Q181.92 45.88 178.35 52.78ZM188.41 41.62L188.37 41.57L189.70 39.14L189.53 38.97Q188.35 39.60 186.26 40.51L186.24 40.49L186.66 40.29L186.48 40.11Q186.76 40.06 186.90 39.91L186.91 39.92L186.76 39.77Q187.29 38.98 188.20 37.31L188.25 37.36L188.21 37.32Q181.57 40.20 174.38 39.91L174.40 39.93L174.45 39.98Q166.78 39.49 160.83 35.78L160.91 35.86L160.86 35.81Q162.20 38.20 163.25 41.53L163.31 41.59L163.34 41.62Q164.70 42.41 165.70 42.79L165.60 42.69L165.59 42.68Q165.89 43.22 166.46 45.55L166.42 45.51L166.37 45.46Q170.28 46.99 177.18 46.80L177.18 46.80L177.25 46.87Q176.92 47.63 174.44 52.34L174.42 52.32L174.45 52.35Q171.84 52.31 169.37 52.07L169.40 52.11L169.25 51.96Q169.53 53.19 169.53 54.29L169.49 54.25L169.45 56.34L171.50 56.30L171.45 58.02L171.45 58.02Q166.54 67.24 163.07 71.71L163.18 71.82L163.14 71.78Q165.17 70.86 167.21 70.24L167.23 70.26L167.20 70.23Q166.43 71.45 164.71 73.59L164.64 73.52L164.58 73.46Q168.53 72.08 171.57 71.79L171.72 71.94L171.54 71.76Q175.38 67.23 179.28 58.76L179.20 58.67L183.39 58.82L183.39 58.82Q183.33 57.71 183.33 56.57L183.43 56.66L183.34 54.34L183.36 54.36Q183.07 54.41 182.38 54.46L182.26 54.33L182.35 54.42Q181.67 54.48 181.34 54.48L181.24 54.38L181.32 54.46Q181.43 54.43 181.48 54.24L181.34 54.10L181.44 53.87L181.34 53.77Q184.47 47.33 188.32 41.53Z"/><path fill="#6feb8e" d="M139.20 70.54L139.09 70.43L139.16 70.50Q135.55 70.70 133.98 70.04L133.91 69.96L133.89 69.94Q131.43 68.91 131.53 65.82L131.60 65.89L131.61 65.90Q131.85 61.72 131.85 62.43L131.87 62.45L131.77 62.35Q131.80 55.72 128.23 49.67L128.32 49.77L128.24 49.69Q130.73 50.89 133.20 51.36L133.15 51.31L133.27 51.43Q135.35 57.13 135.21 62.74L135.10 62.63L135.21 62.74Q134.99 64.57 136.04 66.09L135.95 66.00L136.06 66.12Q137.23 67.81 139.14 67.57L139.05 67.49L139.54 67.36L139.57 67.39Q141.15 67.21 142.17 66.26L142.19 66.28L142.23 66.32Q143.35 65.46 143.35 64.27L143.29 64.21L143.17 64.09Q143.34 63.97 143.29 63.73L143.22 63.67L143.22 63.66Q143.11 57.08 144.53 51.65L144.55 51.67L144.52 51.64Q145.83 51.57 147.07 51.29L147.06 51.28L149.61 50.68L149.54 50.61Q146.30 56.85 146.68 63.80L146.75 63.87L146.78 63.89Q147.00 67.72 144.85 69.15L144.95 69.25L144.82 69.12Q143.25 70.27 139.11 70.46ZM142.11 73.55L142.01 73.44L141.93 73.37Q146.45 73.74 148.73 72.79L148.55 72.61L148.69 72.75Q149.75 71.72 149.75 69.96L149.79 70.00L149.73 69.93Q149.77 68.83 149.44 66.88L149.39 66.84L149.45 66.89Q148.94 63.05 149.41 59.29L149.37 59.25L149.28 59.16Q149.82 55.27 151.58 51.85L151.52 51.78L151.55 51.82Q150.69 52.15 149.02 52.67L149.16 52.80L149.05 52.70Q149.36 51.96 149.74 51.24L149.72 51.22L150.45 49.81L150.41 49.77Q148.06 50.66 144.11 51.28L144.16 51.33L144.21 51.38Q142.61 57.29 142.80 63.67L142.71 63.58L142.76 63.63Q142.88 66.27 139.54 66.89L139.45 66.80L139.06 66.98L138.93 67.03L137.78 66.89L137.67 66.78Q137.61 65.72 137.66 65.10L137.61 65.05L137.69 65.12Q137.97 59.51 137.11 53.99L137.04 53.92L135.68 53.70L135.82 53.84Q135.04 53.68 134.38 53.54L134.36 53.52L134.34 53.50Q133.85 51.72 133.51 50.77L133.54 50.79L133.56 50.82Q130.11 50.31 127.30 48.70L127.24 48.64L127.34 48.74Q130.02 53.13 130.92 57.36L130.79 57.23L130.83 57.27Q131.55 60.13 131.36 64.51L131.26 64.41L131.41 64.56Q131.34 64.63 131.25 66.01L131.26 66.03L131.27 66.04Q131.01 68.92 132.73 70.11L132.71 70.09L132.87 70.26Q133.31 73.03 142.07 73.50Z"/><path fill="#cb80e4" d="M30.73 54.91L30.68 54.86L30.64 54.82Q27.62 54.99 26.33 56.47L26.17 56.30L26.26 56.39Q25.02 57.92 25.02 61.20L25.00 61.17L25.01 61.18Q24.93 67.48 30.69 67.24L30.63 67.19L30.69 67.24Q33.37 67.55 35.06 65.60L35.12 65.65L34.97 65.51Q36.63 63.53 36.35 60.96L36.35 60.96L36.34 60.96Q36.49 57.91 35.39 56.63L35.35 56.59L35.29 56.52Q33.52 54.95 30.76 54.95ZM37.00 67.13L37.02 67.16L36.93 67.06Q35.43 70.13 29.58 70.13L29.61 70.16L27.85 70.21L27.79 70.15Q24.88 70.19 23.50 68.77L23.49 68.75L23.46 68.72Q22.31 67.58 21.98 64.58L21.99 64.59L21.87 64.47Q21.65 62.58 21.55 60.34L21.53 60.33L21.67 60.46Q21.50 59.10 21.31 56.68L21.48 56.85L21.40 56.77Q21.15 51.28 27.62 51.28L27.76 51.42L29.61 51.32L29.64 51.35Q33.30 51.40 35.92 53.01L35.85 52.94L35.85 52.94Q37.00 53.71 37.62 54.57L37.60 54.55L37.42 54.37Q37.94 53.56 38.60 51.51L38.53 51.43L38.55 51.45Q40.05 51.20 42.95 50.43L42.93 50.41L42.97 50.46Q39.77 55.77 39.77 62.34L39.68 62.25L39.70 62.26Q39.81 67.04 41.52 70.90L41.41 70.78L41.36 70.73Q39.96 70.38 37.59 70.10L37.60 70.12L37.64 70.15Q37.48 69.18 37.10 67.23ZM41.09 73.60L41.23 73.74L43.90 74.36L43.82 74.29Q45.33 74.65 46.56 75.22L46.61 75.27L46.76 75.42Q42.18 69.98 42.18 62.37L42.11 62.30L42.06 62.24Q42.05 56.57 44.71 51.82L44.82 51.92L44.84 51.94Q44.04 52.23 42.37 52.71L42.36 52.70L42.30 52.64Q42.80 51.76 43.90 49.86L43.71 49.67L43.71 49.66Q43.12 50.03 38.13 51.08L38.09 51.04L37.39 53.34L37.28 53.23Q35.10 51.10 29.58 50.81L29.63 50.86L29.65 50.89Q28.17 50.83 25.36 51.02L25.47 51.13L25.47 51.13Q20.86 51.56 21.00 56.60L20.88 56.49L21.04 56.65Q21.08 60.68 21.79 66.25L21.79 66.25L21.96 66.94L21.95 66.93Q21.99 67.88 22.99 69.26L22.98 69.24L23.04 69.30Q23.16 69.42 23.40 69.57L23.53 69.70L23.54 69.71Q23.74 70.20 24.22 70.91L24.31 71.00L24.34 71.04Q25.96 72.80 30.20 73.04L30.15 72.98L30.28 73.12Q32.29 73.23 32.49 73.23L32.55 73.29L34.43 73.22L34.39 73.18Q38.35 73.15 39.87 71.19L40.01 71.34L40.05 71.37Q40.45 72.11 41.22 73.73ZM32.87 57.63L32.94 57.70L32.89 57.65Q34.52 57.61 35.57 58.18L35.76 58.37L35.68 58.30Q36.03 59.26 36.03 61.07L36.02 61.07L36.03 61.07Q36.36 63.54 34.77 65.33L34.66 65.22L34.61 65.17Q33.11 67.05 30.73 66.81L30.78 66.86L30.68 66.76Q28.94 66.83 27.66 66.31L27.53 66.18L27.58 66.23Q27.35 65.19 27.35 63.67L27.29 63.61L27.48 63.80Q27.53 59.28 30.81 58.09L30.81 58.09L30.83 58.11Q31.88 57.63 32.88 57.63Z"/><path d="M16 7 C132 48,133 71,246 89" stroke="#7979e1" fill="none"/><path d="M9 78 C117 19,132 40,239 50" stroke="#e1ad79" fill="none"/><path fill="#78ddc4" d="M115.86 47.48L115.91 47.54L116.01 47.64Q113.61 50.90 110.28 57.94L110.42 58.08L107.83 63.30L107.86 63.33Q106.81 65.75 105.14 68.56L105.06 68.48L105.14 68.56Q105.60 68.44 103.51 68.49L103.67 68.65L103.63 68.61Q103.62 68.61 102.05 68.61L102.08 68.63L101.94 68.49Q101.16 66.77 97.50 57.82L97.34 57.66L97.38 57.70Q94.65 50.98 92.03 47.22L92.03 47.21L92.13 47.31Q93.09 51.17 93.09 55.12L92.97 55.01L93.06 55.10Q92.99 63.16 89.27 70.11L89.34 70.18L89.44 70.27Q87.77 70.70 84.82 71.60L84.80 71.58L84.72 71.50Q89.41 64.48 89.41 55.44L89.38 55.41L89.30 55.33Q89.29 44.14 82.53 35.43L82.50 35.40L82.59 35.49Q84.64 36.40 87.59 37.26L87.60 37.26L87.52 37.18Q96.31 45.60 103.93 62.25L104.06 62.39L104.03 62.35Q108.30 53.49 111.06 49.11L111.15 49.20L111.20 49.25Q115.68 42.03 120.63 37.69L120.51 37.58L120.55 37.61Q122.09 37.30 125.04 36.35L125.13 36.43L124.99 36.29Q118.82 44.64 118.82 55.40L118.86 55.43L118.80 55.37Q118.87 63.77 123.15 70.67L123.13 70.65L123.15 70.68Q121.47 70.28 118.04 69.51L118.08 69.56L118.08 69.55Q115.13 63.55 115.13 56.08L115.14 56.09L115.15 56.10Q115.06 51.74 115.92 47.55ZM117.89 70.07L117.77 69.96L117.87 70.05Q118.71 70.18 120.52 70.52L120.47 70.46L120.38 70.38Q121.05 71.43 122.24 73.28L122.28 73.32L122.15 73.19Q124.94 73.85 129.27 75.37L129.30 75.39L129.30 75.39Q121.46 67.46 121.46 55.18L121.28 55.00L121.41 55.13Q121.42 45.48 126.89 37.82L126.85 37.78L124.16 38.70L124.19 38.74Q125.38 36.74 126.19 35.65L126.12 35.57L126.08 35.53Q123.92 36.52 120.64 37.18L120.59 37.13L120.56 37.10Q112.01 44.64 104.45 60.39L104.61 60.55L104.49 60.43Q97.99 46.70 91.80 40.13L91.78 40.11L91.77 40.10Q91.30 40.02 90.59 39.87L90.60 39.88L89.07 38.25L89.25 38.43Q88.46 37.56 87.61 36.79L87.52 36.70L87.61 36.80Q83.88 35.63 81.64 34.73L81.53 34.62L81.63 34.72Q88.93 43.55 88.93 55.30L88.99 55.35L89.09 55.46Q89.01 64.89 83.82 72.22L83.87 72.27L83.78 72.18Q84.68 71.94 86.30 71.41L86.27 71.38L86.28 71.40Q86.22 71.81 84.46 74.43L84.34 74.31L84.36 74.33Q86.71 73.83 91.09 72.87L90.96 72.74L91.03 72.81Q95.66 63.98 95.42 54.27L95.42 54.27L95.39 54.24Q97.25 59.19 101.58 69.04L101.66 69.12L101.71 69.17Q101.87 68.95 102.15 68.95L102.25 69.04L102.90 69.02L102.88 69.00Q103.44 69.86 104.44 71.47L104.47 71.50L104.52 71.55Q106.62 71.61 106.62 71.61L106.54 71.53L106.47 71.46Q107.81 71.51 108.62 71.61L108.50 71.49L108.49 71.48Q110.56 66.55 114.75 56.56L114.77 56.58L114.68 56.49Q114.53 63.29 117.77 69.96Z"/><path fill="#4f70d3" d="M68.73 41.86L68.71 41.83L68.62 41.74Q67.83 42.33 67.64 43.33L67.51 43.20L67.68 49.80L67.64 49.76Q69.02 49.71 71.78 49.38L71.79 49.39L71.76 49.35Q71.71 49.88 71.67 50.93L71.74 51.00L71.71 50.97Q71.71 51.97 71.71 52.54L71.68 52.51L69.70 52.63L69.65 52.57Q68.75 52.78 67.66 52.78L67.61 52.73L67.58 52.70Q67.55 57.90 67.46 68.37L67.42 68.33L67.44 68.35Q64.66 68.43 62.80 69.28L62.91 69.40L62.90 69.38Q64.13 61.57 63.99 52.53L64.16 52.70L64.04 52.58Q63.28 52.58 61.66 52.25L61.68 52.27L61.61 52.20Q61.73 51.08 61.50 48.66L61.39 48.55L61.46 48.62Q62.87 49.27 64.06 49.51L63.99 49.44L64.08 49.52Q63.87 48.56 63.49 45.47L63.48 45.45L63.50 45.47Q63.25 42.94 63.25 41.75L63.22 41.72L63.35 41.85Q63.21 39.62 64.97 38.90L65.05 38.98L65.10 39.04Q66.03 38.48 72.07 37.44L72.18 37.55L72.19 37.55Q73.02 37.20 74.07 37.06L74.11 37.10L74.13 37.12Q73.95 38.17 73.76 39.27L73.77 39.28L73.27 41.12L73.32 41.16Q72.49 40.95 71.87 41.09L71.82 41.04L71.97 41.19Q71.16 41.14 68.78 41.90ZM75.59 43.34L75.41 43.16L75.41 43.16Q75.92 40.48 76.68 37.29L76.69 37.30L76.59 37.20Q76.01 37.80 74.39 38.57L74.36 38.54L74.74 36.30L74.74 36.30Q73.19 36.51 70.10 37.18L70.10 37.18L70.19 37.27Q68.74 37.39 64.74 38.53L64.74 38.53L64.76 38.55Q62.81 39.07 62.81 41.40L62.73 41.33L62.77 41.37Q62.78 41.75 62.87 42.18L62.86 42.17L62.91 42.22Q63.16 43.85 63.31 45.52L63.29 45.50L63.51 48.81L63.49 48.79Q61.74 48.28 60.93 47.71L61.03 47.82L60.96 47.74Q61.03 48.86 61.08 50.14L61.25 50.31L61.24 52.63L61.39 52.79Q62.22 52.95 63.22 53.04L63.30 53.12L63.13 55.58L63.61 55.58L63.76 55.73Q63.54 63.32 62.31 70.12L62.29 70.11L62.38 70.19Q63.63 69.58 65.10 69.25L65.03 69.18L64.75 71.70L64.73 71.69Q66.36 71.41 67.98 71.36L68.00 71.39L67.93 71.32Q69.45 71.27 71.02 71.61L71.16 71.74L71.02 71.60Q70.00 65.39 70.00 55.45L70.06 55.51L70.06 55.51Q71.37 55.44 73.99 55.53L73.92 55.47L74.00 53.21L73.96 53.18Q74.04 52.06 74.08 50.87L73.99 50.78L74.13 50.92Q73.55 51.05 72.22 51.38L72.20 51.37L72.18 51.35Q72.05 50.36 72.19 48.69L72.30 48.80L72.23 48.73Q71.24 49.08 70.24 49.17L70.16 49.09L70.19 49.12Q70.30 47.47 70.44 45.71L70.43 45.69L70.27 45.53Q70.55 44.81 71.21 44.38L71.24 44.41L71.27 44.44Q72.44 43.57 73.47 43.47L73.41 43.41L73.40 43.41Q74.47 43.35 75.51 43.26Z"/><path fill="#4ddf4d" d="M206.22 37.37L206.17 37.31L206.17 37.31Q207.61 40.19 210.04 40.19L210.04 40.19L209.93 40.07Q210.56 40.09 211.08 39.90L211.11 39.93L211.14 39.95Q210.90 46.38 210.86 54.38L210.71 54.23L210.79 54.31Q210.84 62.21 211.08 68.78L211.07 68.77L210.93 68.63Q210.43 68.41 209.95 68.41L210.08 68.55L210.09 68.55Q208.26 68.43 206.50 70.77L206.66 70.93L206.64 70.91Q207.37 62.40 207.32 54.03L207.29 54.00L207.30 54.01Q207.23 45.61 206.09 37.24ZM206.04 72.31L205.96 72.22L205.99 72.26Q207.11 70.33 208.58 69.42L208.49 69.34L208.49 69.33Q208.66 70.74 208.57 72.08L208.42 71.93L208.57 72.08Q209.39 71.32 210.34 71.46L210.45 71.57L210.51 71.63Q212.90 71.75 214.62 75.22L214.75 75.36L214.65 75.25Q213.19 66.08 213.19 56.99L213.16 56.96L213.27 57.08Q213.21 47.59 214.21 38.69L214.29 38.77L214.26 38.74Q212.89 40.94 211.56 41.75L211.49 41.68L211.57 41.77Q211.56 40.85 211.70 39.14L211.72 39.15L211.69 39.12Q210.73 39.69 209.78 39.55L209.82 39.59L209.82 39.58Q206.75 39.13 205.46 35.51L205.47 35.52L205.54 35.59Q206.89 44.94 207.03 53.89L206.98 53.83L207.01 53.87Q207.10 62.76 205.86 72.13Z"/></svg>